<svg xmlns="http://www.w3.org/2000/svg" viewBox="0 0 357.03 355.99"><defs><style>.cls-1{fill:#16bae4;}.cls-2{fill:#fff;}</style></defs><title>Ambassador</title><g id="Graphics"><path class="cls-1" d="M129.59,294.91a5.68,5.68,0,1,1,0-11.36h43.26V250.42h-110a23.51,23.51,0,0,1-23.48-23.48V84.56A23.51,23.51,0,0,1,62.83,61.08H294.2a23.5,23.5,0,0,1,23.48,23.48V226.94a23.5,23.5,0,0,1-23.48,23.48h-110v33.09l3.2,0h40.06a5.68,5.68,0,0,1,0,11.36ZM62.83,72.45A12.12,12.12,0,0,0,50.72,84.56V226.94a12.12,12.12,0,0,0,12.11,12.11H294.2a12.12,12.12,0,0,0,12.11-12.11V84.56A12.12,12.12,0,0,0,294.2,72.45Z"/><path class="cls-2" d="M235.56,122.76a19.21,19.21,0,0,0-17.92-12c-.52,0-1,0-1.56,0s-.85.17-1.28.22a18.82,18.82,0,0,0-13.44,8.26,18.26,18.26,0,0,0-3.29,13.41,19.48,19.48,0,0,0,5.5,11.39,20.59,20.59,0,0,0,7.61,4.85c.32.12,1,0,.88.73s-.09,1.47-.2,2.19c-.9,6.1-4.66,9.49-10.45,10.89-4.64,1.13-9.4,1.25-14.14,1.79-6,.71-12,1.5-17.76,3.66-.72.27-1,.16-1-.68q0-16.65,0-33.3a1.21,1.21,0,0,1,1-1.3,18.47,18.47,0,0,0,8.18-5.53,18.9,18.9,0,0,0,4.63-12.65,19.18,19.18,0,0,0-4.48-12.46c-4.38-5.36-10.11-7.47-16.79-7.1a18.22,18.22,0,0,0-10.75,4.42,18.61,18.61,0,0,0-6.92,18.15c1.12,7.18,5,12.55,12.19,15.1a1.66,1.66,0,0,1,1.31,1.85q-.06,23.12,0,46.23a1.61,1.61,0,0,1-1.33,1.83,16.76,16.76,0,0,0-8.76,6.49c-4.1,6-4.93,12.54-2.05,19.25,3.09,7.19,8.69,11.29,16.5,11.92,7.37.58,13.29-2.51,17.64-8.36a18.06,18.06,0,0,0,3.22-13.83,19.21,19.21,0,0,0-10.77-15c-1.53-.76-1.56-1-.24-2.16a15.37,15.37,0,0,1,6.36-3.13,39.5,39.5,0,0,1,6.91-1.12q7.42-.74,14.81-1.79a36.34,36.34,0,0,0,12.61-3.88c7.67-4.23,11.32-10.94,11.94-19.51.1-1.35,0-2.8,1.84-3.41a15.28,15.28,0,0,0,7.69-6A19.19,19.19,0,0,0,235.56,122.76Zm-80.65-8.13c0-3.82,3.47-7.81,7.66-7.84s8.17,3.66,7.84,7.84c.27,3.83-3.41,7.81-7.6,7.83A8,8,0,0,1,154.91,114.63Zm15.44,86.19c.27,3.81-3.41,7.79-7.61,7.8a8,8,0,0,1-7.88-7.83c0-3.81,3.48-7.8,7.67-7.81s8.16,3.69,7.82,7.86Zm47.37-62.7c-4.14,0-8.24-3.66-7.87-7.93-.21-3.71,3.37-7.67,7.57-7.72a8,8,0,0,1,7.93,7.93C225.24,134.11,221.9,138.08,217.72,138.12Z"/></g></svg>