<?xml version="1.0" encoding="UTF-8"?>
<svg width="51px" height="41px" viewBox="0 0 51 41" version="1.1" xmlns="http://www.w3.org/2000/svg" xmlns:xlink="http://www.w3.org/1999/xlink">
    <!-- Generator: Sketch 52.6 (67491) - http://www.bohemiancoding.com/sketch -->
    <title>Path</title>
    <desc>Created with Sketch.</desc>
    <g id="Page-1" stroke="none" stroke-width="1" fill="none" fill-rule="evenodd">
        <path d="M24.7921349,40.4789966 L18.7921349,35.2789966 C14.1021349,31.2789966 9.40213487,27.1889966 4.73213487,23.1089966 C0.812134866,19.6989966 -0.817865134,15.4089966 0.392134866,10.3389966 C1.44495482,5.51850693 5.19053874,1.74174229 10.0021349,0.648996595 C15.2689912,-1.00289108 21.0156542,0.558702121 24.7221349,4.6489966 L25.0821349,4.9889966 C26.0821349,4.1489966 26.9721349,3.2489966 28.0021349,2.5389966 C35.5121349,-2.6710034 46.2921349,0.588996595 49.2721349,8.9489966 C51.0549746,13.8638325 49.6279852,19.3690702 45.6821349,22.7989966 C38.8621349,28.6789966 31.9621349,34.4689966 25.1021349,40.2989966 C25.0022571,40.3647597 24.8987604,40.4248545 24.7921349,40.4789966 Z" id="Path" fill="#E75225"></path>
    </g>
</svg>