<svg xmlns="http://www.w3.org/2000/svg" viewBox="0 0 3190.71 773.96"><defs><style>.cls-1,.cls-2,.cls-3{fill:none;stroke-miterlimit:10;}.cls-1{stroke:#fbd702;stroke-width:65px;}.cls-2{stroke:#e23a35;}.cls-2,.cls-3{stroke-width:60px;}.cls-3{stroke:#16bae4;}.cls-4{fill:#249988;}.cls-5{fill:#0b161d;}</style></defs><title>Ambassador</title><g id="Hero"><path class="cls-1" d="M0,231.16H889.91a154.7,154.7,0,0,1,154.7,154.7V400.2a145.87,145.87,0,0,0,145.87,145.87H3190.71"/><path class="cls-2" d="M0,292.5H901.32a81.9,81.9,0,0,1,81.91,81.9v27.3c0,113.61,92.1,205.72,205.72,205.72H3190.71"/><path class="cls-3" d="M0,170.08H891.28c118.42,0,214.42,96,214.42,214.41V406a79,79,0,0,0,79,79H3190.71"/><path class="cls-4" d="M1591.32,761h-.17l-12.66-.5a316.87,316.87,0,0,1-283.64-427.85,24.82,24.82,0,0,1,23.11-16,24.73,24.73,0,0,1,24.63,22.95,270.23,270.23,0,0,1,118.24-131.69A24.67,24.67,0,0,1,1484.7,251a220.58,220.58,0,0,0,8.79,390.7v-70a50.08,50.08,0,0,1-26.24-43.59A49.17,49.17,0,0,1,1484.72,490c-5.5-40.66-18.49-48.69-28.11-54.64-7.65-4.73-18.12-11.2-18.12-28V391.73c0-26.65,29.3-75,54.39-108.38,17.06-22.67,60.32-75.65,93.56-78.05,1.63-.12,3.3-.18,5-.18s3.27.06,4.9.18c33.23,2.4,76.47,55.39,93.51,78.05,25.07,33.34,54.34,81.73,54.34,108.38v15.66c0,16.79-10.47,23.26-18.11,28-9.63,5.95-22.62,14-28.13,54.64a49.12,49.12,0,0,1,17.52,38.13,50.07,50.07,0,0,1-26.27,43.59v70A220.58,220.58,0,0,0,1697.94,251a24.66,24.66,0,0,1,23.87-43.17,270.23,270.23,0,0,1,118.25,131.72,24.68,24.68,0,0,1,47.73-7,316.73,316.73,0,0,1-283.64,427.85l-12.66.5h-.17Z"/><path class="cls-5" d="M1709.94,217.26a11.91,11.91,0,0,1,5.81,1.51,257.23,257.23,0,0,1,132.89,225.28c0,121.09-83.65,222.65-196.32,250V584.3a190.79,190.79,0,0,1-24.33,6.5V721.48c137.21-18,243.14-135.32,243.14-277.43a279.16,279.16,0,0,0-17.85-98.56,12.17,12.17,0,0,1,22.81-8.5,303.6,303.6,0,0,1,19.37,107.06c0,163.84-129.48,297.43-291.81,303.9V594c-4.33.26-12.33.4-12.33.4s-8-.14-12.33-.4V748c-162.33-6.47-291.81-140.06-291.81-303.9A303.6,303.6,0,0,1,1306.55,337a12.17,12.17,0,1,1,22.81,8.5,279.16,279.16,0,0,0-17.86,98.56c0,142.11,105.94,259.48,243.15,277.43V590.8a190.79,190.79,0,0,1-24.33-6.5V694.09c-112.67-27.39-196.32-129-196.32-250a257.24,257.24,0,0,1,132.88-225.28,12,12,0,0,1,5.82-1.51,12.18,12.18,0,0,1,6,22.81,232.93,232.93,0,0,0-120.32,204c0,98.55,61.2,182.81,147.66,216.86V563.52a37.31,37.31,0,0,1-26.24-35.37A36.69,36.69,0,0,1,1498,495.94c-8.74-84-47-61.86-47-88.55V391.73c0-40.16,92.89-170.82,136.34-174,1.34-.1,2.72-.15,4.06-.15s2.67,0,4,.15c43.45,3.14,136.25,133.8,136.25,174v15.66c0,26.69-38.3,4.55-47,88.55a36.75,36.75,0,0,1,18.31,32.21,37.35,37.35,0,0,1-26.27,35.37v97.39c86.46-34,147.66-118.31,147.66-216.86a232.93,232.93,0,0,0-120.32-204,12.18,12.18,0,0,1,6-22.81m0-25h0A37.18,37.18,0,0,0,1679,250.09,324.09,324.09,0,0,0,1651.73,222c-20.56-18.49-38.4-28-54.54-29.21-1.93-.14-3.88-.21-5.8-.21s-3.93.07-5.87.22c-16.12,1.16-34,10.71-54.53,29.19a323.91,323.91,0,0,0-27.45,28.23,37.17,37.17,0,0,0-48.74-53.38,283.7,283.7,0,0,0-105.49,101.71q-4.11,6.82-7.82,13.86a37.51,37.51,0,0,0-9-5.41,36.9,36.9,0,0,0-14.54-3,37.37,37.37,0,0,0-34.81,24.13A329,329,0,0,0,1578,772.93l.66,0v1l12.67-.5,12.67.5v-1l.66,0a329.37,329.37,0,0,0,294.84-444.74,37.39,37.39,0,0,0-34.82-24.12,37.28,37.28,0,0,0-23.52,8.39q-3.7-7-7.82-13.87a283.76,283.76,0,0,0-105.47-101.7,37.11,37.11,0,0,0-17.92-4.63ZM1481,620.43a208,208,0,0,1,9.77-358.49,37.71,37.71,0,0,0,7.42-5.39c-5.12,6.11-10.23,12.56-15.29,19.28-15.12,20.1-28.92,41.63-38.86,60.63-12.13,23.21-18,41.29-18,55.27v15.66c0,23.76,15.64,33.43,24,38.62,4.92,3,8.47,5.23,11.91,10.64,4.06,6.37,7.27,16.22,9.44,28.86a61.39,61.39,0,0,0-8.37,11.32,63,63,0,0,0-8.26,31.32,61.22,61.22,0,0,0,12.58,37.28A62.93,62.93,0,0,0,1481,578.64v41.79ZM1711.25,485.5c2.17-12.64,5.38-22.48,9.44-28.85,3.44-5.41,7-7.6,11.91-10.64,8.4-5.19,24-14.86,24-38.62V391.73c0-14-5.89-32.05-18-55.26-9.93-19-23.72-40.54-38.83-60.63-5-6.67-10.08-13.07-15.15-19.14a37.29,37.29,0,0,0,7.25,5.25,207.95,207.95,0,0,1,107.42,182.1,208.15,208.15,0,0,1-97.66,176.38V578.65a62.93,62.93,0,0,0,13.66-13.21,61.15,61.15,0,0,0,12.61-37.29,62.88,62.88,0,0,0-8.3-31.35,61.59,61.59,0,0,0-8.37-11.3Z"/><path class="cls-5" d="M1647.46,510.49a25,25,0,1,1-7.32,17.67A24.89,24.89,0,0,1,1647.46,510.49Z"/><path class="cls-5" d="M1535.21,545.84a25,25,0,1,1,7.32-17.68A24.9,24.9,0,0,1,1535.21,545.84Z"/><path class="cls-5" d="M1591.75,576.16a23.56,23.56,0,0,1-23.56-23.56h47.13A23.56,23.56,0,0,1,1591.75,576.16Z"/></g></svg>