<svg xmlns="http://www.w3.org/2000/svg" viewBox="0 0 357.03 355.99"><defs><style>.cls-1{fill:#16bae4;}.cls-2{fill:#fff;}.cls-3{fill:#0b161d;}</style></defs><title>Ambassador</title><g id="Graphics"><path class="cls-1" d="M213.76,78H26.3a6.25,6.25,0,1,0,0,12.49H38.8V196.74A6.25,6.25,0,0,0,45.05,203h68.73V237.9L90.62,261.06a6.25,6.25,0,0,0,8.84,8.84l14.32-14.33v16.16a6.25,6.25,0,0,0,12.5,0V255.57l14.33,14.33a6.25,6.25,0,1,0,8.84-8.84L126.28,237.9V203H195a6.25,6.25,0,0,0,6.25-6.25V90.51h12.49a6.25,6.25,0,1,0,0-12.49Zm-25,112.47H51.3v-100H188.77Z"/><path class="cls-1" d="M286.89,169.64a27.85,27.85,0,1,0-27.84-27.84A27.88,27.88,0,0,0,286.89,169.64Zm0-45.57a17.73,17.73,0,1,1-17.72,17.73A17.74,17.74,0,0,1,286.89,124.07Z"/><path class="cls-1" d="M235.47,202.07a6.25,6.25,0,0,1-3.94-1.4l-56.59-46.06a6.25,6.25,0,1,1,7.89-9.69L239.42,191a6.25,6.25,0,0,1-3.95,11.1Z"/><rect class="cls-2" x="60.55" y="124.4" width="32.72" height="15.42" rx="1.85"/><rect class="cls-2" x="105.55" y="110.2" width="2.42" height="43.36" transform="translate(238.64 25.13) rotate(90)"/><path class="cls-2" d="M129,133.69H84.48v-3.61H129ZM85.67,132.5h42.17v-1.23H85.67Z"/><rect class="cls-1" x="111.49" y="147.45" width="52.73" height="15.96"/><rect class="cls-1" x="134.74" y="124.14" width="29.48" height="15.69"/><rect class="cls-1" x="111.49" y="100.46" width="52.73" height="15.96"/><path class="cls-2" d="M112.32,103.63H109.9v81.44a1.21,1.21,0,0,0,1.21,1.2h0a1.21,1.21,0,0,0,1.21-1.2Z"/><path class="cls-2" d="M111.11,187.46a2.4,2.4,0,0,1-2.4-2.39V102.44h4.79v82.63A2.39,2.39,0,0,1,111.11,187.46Zm0-82.65v80.26l0-80.26Z"/><circle class="cls-3" cx="111.11" cy="108.44" r="5.99"/><path class="cls-2" d="M111.11,104a4.42,4.42,0,1,1-4.42,4.42,4.43,4.43,0,0,1,4.42-4.42m0-3.56a8,8,0,1,0,8,8,8,8,0,0,0-8-8Z"/><path class="cls-2" d="M125.81,156.33h-7.75v-1.8h7.75a8.55,8.55,0,0,0,8.54-8.54v-7.46h1.8V146A10.35,10.35,0,0,1,125.81,156.33Z"/><path class="cls-2" d="M125.81,157.52h-8.93v-4.17h8.93a7.36,7.36,0,0,0,7.35-7.36v-8.64h4.18V146A11.55,11.55,0,0,1,125.81,157.52Z"/><circle class="cls-3" cx="111.11" cy="155.43" r="6.45"/><path class="cls-2" d="M111.11,151a4.42,4.42,0,1,1-4.42,4.41,4.43,4.43,0,0,1,4.42-4.41m0-3.57a8,8,0,1,0,8,8,8,8,0,0,0-8-8Z"/><circle class="cls-3" cx="135.09" cy="132.11" r="6.73"/><path class="cls-2" d="M135.08,127.7a4.42,4.42,0,1,1-4.41,4.41,4.42,4.42,0,0,1,4.41-4.41m0-3.56a8,8,0,1,0,8,8,8,8,0,0,0-8-8Z"/><path class="cls-1" d="M312.14,275.29H261.77a5.25,5.25,0,0,1-5.25-5.24V211.41H236.34a5.26,5.26,0,0,1-5.17-6.16,36.87,36.87,0,0,1,9.74-17.54c7.15-7.41,21-16,46.47-14.72,26.9,1.32,40.68,17,47.51,30a76.52,76.52,0,0,1,8.25,27.55,5.24,5.24,0,0,1-5.24,5.61H317.38v33.88A5.24,5.24,0,0,1,312.14,275.29ZM267,264.8h39.87V230.92a5.25,5.25,0,0,1,5.25-5.24h19.72c-2.4-12.32-11.53-40.56-45-42.21-27.62-1.36-38.64,10-42.87,17.44h17.78a5.25,5.25,0,0,1,5.25,5.25Z"/></g></svg>