<svg xmlns="http://www.w3.org/2000/svg" viewBox="0 0 357.03 355.99"><defs><style>.cls-1{fill:#fff;}.cls-2{fill:#16bae4;}</style></defs><title>Ambassador-svg</title><g id="Graphics"><path class="cls-1" d="M178.52,198.52a8.53,8.53,0,0,1-6.1-2.54l-33.36-33.75a28.1,28.1,0,0,1,39.46-40,28.1,28.1,0,0,1,39.42,40.05L184.61,196A8.52,8.52,0,0,1,178.52,198.52ZM159,126A16.43,16.43,0,0,0,147.3,154l31.22,31.59,31.19-31.56a16.48,16.48,0,0,0-23.34-23.28,15.54,15.54,0,0,0-2.81,3.35,5.8,5.8,0,0,1-10.15,0,15.42,15.42,0,0,0-2.74-3.35A16.44,16.44,0,0,0,159,126Z"/><path class="cls-2" d="M127.11,284.49a27.87,27.87,0,0,1-27.85-27.84V99A27.83,27.83,0,0,1,126.7,71.15H240.2a17.59,17.59,0,0,1,17.57,17.57V266.93a17.59,17.59,0,0,1-17.57,17.56Zm-3-7.71H240.2a9.86,9.86,0,0,0,9.86-9.85V234l-4,1.44a17.46,17.46,0,0,1-5.85,1H127.12a20.13,20.13,0,0,0-19.92,17.14H107v3a20.17,20.17,0,0,0,17.15,19.91ZM107,99V236.63l4.67-3.13a27.69,27.69,0,0,1,15.47-4.7H240.2a9.86,9.86,0,0,0,9.86-9.85V88.72a9.87,9.87,0,0,0-9.86-9.86H127.11A20.13,20.13,0,0,0,107.2,96H107Z"/></g></svg>