<svg xmlns="http://www.w3.org/2000/svg" viewBox="0 0 1599 799"><defs><style>.cls-1{fill:#fbd702;}</style></defs><title>Ambassador</title><g id="Hero"><polygon class="cls-1" points="699.85 131.53 720.98 134.76 700.06 139.15 696.83 160.28 692.44 139.36 671.31 136.14 692.23 131.74 695.46 110.61 699.85 131.53"/><polygon class="cls-1" points="905.82 75.21 926.95 78.44 906.03 82.83 902.8 103.96 898.41 83.05 877.28 79.82 898.2 75.42 901.43 54.3 905.82 75.21"/><polygon class="cls-1" points="1157.53 56.03 1178.65 59.26 1157.74 63.65 1154.51 84.78 1150.12 63.86 1128.99 60.63 1149.91 56.24 1153.13 35.11 1157.53 56.03"/><polygon class="cls-1" points="1207.19 117.75 1228.32 120.98 1207.4 125.38 1204.17 146.5 1199.78 125.59 1178.65 122.36 1199.57 117.97 1202.8 96.84 1207.19 117.75"/><polygon class="cls-1" points="1466.79 96.97 1487.92 100.2 1467 104.59 1463.78 125.72 1459.38 104.81 1438.25 101.58 1459.17 97.18 1462.4 76.06 1466.79 96.97"/><polygon class="cls-1" points="42.76 241.06 63.88 244.28 42.97 248.68 39.74 269.8 35.35 248.89 14.22 245.66 35.13 241.27 38.36 220.14 42.76 241.06"/><polygon class="cls-1" points="1377.87 193.95 1399 197.18 1378.09 201.57 1374.86 222.7 1370.46 201.78 1349.34 198.55 1370.25 194.16 1373.48 173.03 1377.87 193.95"/><polygon class="cls-1" points="1505.07 367.5 1526.19 370.73 1505.28 375.12 1502.05 396.25 1497.66 375.34 1476.53 372.11 1497.44 367.71 1500.67 346.59 1505.07 367.5"/><polygon class="cls-1" points="459.32 227.15 480.45 230.37 459.54 234.77 456.31 255.9 451.92 234.98 430.79 231.75 451.7 227.36 454.93 206.23 459.32 227.15"/><polygon class="cls-1" points="222.94 181.3 244.06 184.53 223.15 188.92 219.92 210.05 215.53 189.13 194.4 185.91 215.31 181.51 218.54 160.38 222.94 181.3"/><polygon class="cls-1" points="990.14 133.25 1001.97 135.06 990.26 137.52 988.45 149.35 985.99 137.64 974.15 135.83 985.87 133.37 987.68 121.54 990.14 133.25"/><polygon class="cls-1" points="1351.41 87.86 1363.24 89.67 1351.53 92.13 1349.72 103.96 1347.26 92.25 1335.43 90.44 1347.14 87.98 1348.95 76.15 1351.41 87.86"/><polygon class="cls-1" points="947.88 658.79 959.71 660.6 948 663.06 946.19 674.89 943.73 663.18 931.9 661.37 943.61 658.91 945.42 647.08 947.88 658.79"/><polygon class="cls-1" points="846.09 49.12 857.92 50.93 846.21 53.39 844.4 65.22 841.94 53.51 830.11 51.7 841.82 49.24 843.63 37.41 846.09 49.12"/><polygon class="cls-1" points="627.02 21.31 638.86 23.11 627.14 25.57 625.34 37.41 622.87 25.69 611.04 23.89 622.76 21.43 624.56 9.59 627.02 21.31"/><polygon class="cls-1" points="1398.07 364.4 1419.2 367.62 1398.28 372.02 1395.06 393.14 1390.66 372.23 1369.53 369 1390.45 364.61 1393.68 343.48 1398.07 364.4"/><polygon class="cls-1" points="910.77 304.96 931.9 308.19 910.98 312.59 907.76 333.71 903.36 312.8 882.24 309.57 903.15 305.18 906.38 284.05 910.77 304.96"/><polygon class="cls-1" points="833.81 166.03 854.94 169.26 834.03 173.65 830.8 194.78 826.4 173.86 805.28 170.64 826.19 166.24 829.42 145.12 833.81 166.03"/><polygon class="cls-1" points="315.98 61.31 337.11 64.53 316.19 68.93 312.96 90.05 308.57 69.14 287.44 65.91 308.36 61.52 311.59 40.39 315.98 61.31"/><polygon class="cls-1" points="1565.43 190.86 1586.55 194.09 1565.64 198.48 1562.41 219.61 1558.02 198.69 1536.89 195.47 1557.81 191.07 1561.03 169.95 1565.43 190.86"/><polygon class="cls-1" points="784.98 360.37 796.81 362.18 785.1 364.64 783.29 376.47 780.83 364.76 769 362.95 780.71 360.49 782.52 348.66 784.98 360.37"/><polygon class="cls-1" points="640.93 276.24 652.76 278.05 641.05 280.51 639.24 292.34 636.78 280.63 624.95 278.82 636.66 276.36 638.47 264.52 640.93 276.24"/><polygon class="cls-1" points="539.81 101.77 551.65 103.58 539.93 106.04 538.13 117.87 535.66 106.15 523.83 104.35 535.54 101.89 537.35 90.05 539.81 101.77"/><polygon class="cls-1" points="211.15 35.21 222.99 37.02 211.27 39.48 209.46 51.31 207 39.6 195.17 37.79 206.88 35.33 208.69 23.5 211.15 35.21"/><polygon class="cls-1" points="80.7 167.75 92.53 169.56 80.82 172.02 79.01 183.85 76.55 172.14 64.72 170.33 76.43 167.87 78.24 156.04 80.7 167.75"/><polygon class="cls-1" points="317.26 242.78 329.09 244.59 317.38 247.05 315.57 258.88 313.11 247.16 301.27 245.36 312.99 242.9 314.8 231.06 317.26 242.78"/><polygon class="cls-1" points="432.86 174.64 444.69 176.45 432.98 178.91 431.17 190.75 428.71 179.03 416.88 177.22 428.6 174.76 430.4 162.93 432.86 174.64"/><polygon class="cls-1" points="1232.34 315.98 1253.47 319.21 1232.55 323.6 1229.33 344.73 1224.93 323.81 1203.8 320.59 1224.72 316.19 1227.95 295.07 1232.34 315.98"/><polygon class="cls-1" points="995.95 270.13 1017.08 273.36 996.16 277.75 992.94 298.88 988.54 277.97 967.42 274.74 988.33 270.35 991.56 249.22 995.95 270.13"/><polygon class="cls-1" points="1090.27 331.61 1102.11 333.42 1090.39 335.88 1088.58 347.71 1086.12 336 1074.29 334.19 1086.01 331.73 1087.81 319.9 1090.27 331.61"/><polygon class="cls-1" points="1205.88 263.48 1217.71 265.29 1206 267.75 1204.19 279.58 1201.73 267.87 1189.9 266.06 1201.61 263.6 1203.42 251.76 1205.88 263.48"/><polygon class="cls-1" points="17.5 93.51 29.33 95.31 17.62 97.78 15.81 109.61 13.35 97.89 1.52 96.09 13.23 93.63 15.04 81.79 17.5 93.51"/><polygon class="cls-1" points="25.63 581.88 4.5 585.11 25.42 589.51 28.64 610.63 33.04 589.72 54.16 586.49 33.25 582.1 30.02 560.97 25.63 581.88"/><polygon class="cls-1" points="1505.37 468.73 1484.24 471.96 1505.16 476.35 1508.39 497.48 1512.78 476.56 1533.91 473.33 1512.99 468.94 1509.77 447.81 1505.37 468.73"/><polygon class="cls-1" points="1353.52 468.73 1332.39 471.96 1353.31 476.35 1356.53 497.48 1360.93 476.56 1382.06 473.33 1361.14 468.94 1357.91 447.81 1353.52 468.73"/><polygon class="cls-1" points="1303.86 530.46 1282.73 533.68 1303.64 538.08 1306.87 559.2 1311.27 538.29 1332.39 535.06 1311.48 530.67 1308.25 509.54 1303.86 530.46"/><polygon class="cls-1" points="1044.26 509.67 1023.13 512.9 1044.04 517.29 1047.27 538.42 1051.66 517.51 1072.79 514.28 1051.88 509.88 1048.65 488.76 1044.26 509.67"/><polygon class="cls-1" points="582.49 334.12 561.37 337.34 582.28 341.74 585.51 362.86 589.9 341.95 611.03 338.72 590.11 334.33 586.89 313.2 582.49 334.12"/><polygon class="cls-1" points="671.33 435.6 650.2 438.82 671.12 443.22 674.35 464.35 678.74 443.43 699.87 440.2 678.95 435.81 675.72 414.68 671.33 435.6"/><polygon class="cls-1" points="1133.17 606.65 1112.05 609.88 1132.96 614.27 1136.19 635.4 1140.58 614.48 1161.71 611.26 1140.79 606.86 1137.57 585.74 1133.17 606.65"/><polygon class="cls-1" points="867.04 558.14 845.91 561.37 866.83 565.76 870.05 586.89 874.45 565.97 895.58 562.75 874.66 558.35 871.43 537.22 867.04 558.14"/><polygon class="cls-1" points="794.34 698.14 773.21 701.37 794.12 705.76 797.35 726.89 801.74 705.97 822.87 702.75 801.96 698.35 798.73 677.23 794.34 698.14"/><polygon class="cls-1" points="928.2 766.51 907.07 769.74 927.98 774.13 931.21 795.26 935.6 774.34 956.73 771.11 935.82 766.72 932.59 745.59 928.2 766.51"/><polygon class="cls-1" points="1062.81 705.8 1041.68 709.03 1062.59 713.42 1065.82 734.55 1070.21 713.63 1091.34 710.4 1070.43 706.01 1067.2 684.88 1062.81 705.8"/><polygon class="cls-1" points="117.47 581.88 96.34 585.11 117.25 589.51 120.48 610.63 124.88 589.72 146 586.49 125.09 582.1 121.86 560.97 117.47 581.88"/><polygon class="cls-1" points="353.85 536.04 332.73 539.26 353.64 543.66 356.87 564.79 361.26 543.87 382.39 540.64 361.48 536.25 358.25 515.12 353.85 536.04"/><polygon class="cls-1" points="625.87 548.18 604.75 551.4 625.66 555.8 628.89 576.92 633.28 556.01 654.41 552.78 633.49 548.39 630.27 527.26 625.87 548.18"/><polygon class="cls-1" points="1520.91 545.96 1509.08 547.76 1520.79 550.22 1522.6 562.06 1525.06 550.34 1536.89 548.53 1525.18 546.07 1523.37 534.24 1520.91 545.96"/><polygon class="cls-1" points="1159.63 500.56 1147.8 502.37 1159.52 504.83 1161.32 516.66 1163.78 504.95 1175.62 503.14 1163.9 500.68 1162.1 488.85 1159.63 500.56"/><polygon class="cls-1" points="854.76 434.01 842.93 435.81 854.64 438.28 856.45 450.11 858.91 438.39 870.74 436.59 859.03 434.13 857.22 422.29 854.76 434.01"/><polygon class="cls-1" points="768.67 467.13 756.84 468.94 768.55 471.4 770.36 483.23 772.82 471.52 784.65 469.71 772.94 467.25 771.13 455.42 768.67 467.13"/><polygon class="cls-1" points="75 724.44 53.88 727.67 74.79 732.06 78.02 753.19 82.41 732.27 103.54 729.05 82.63 724.65 79.4 703.53 75 724.44"/><polygon class="cls-1" points="562.3 665.01 541.17 668.24 562.09 672.63 565.32 693.76 569.71 672.84 590.84 669.62 569.92 665.22 566.7 644.09 562.3 665.01"/><polygon class="cls-1" points="260.81 416.04 239.68 419.27 260.6 423.66 263.83 444.79 268.22 423.88 289.35 420.65 268.43 416.25 265.2 395.13 260.81 416.04"/><polygon class="cls-1" points="117.47 291.15 96.34 294.38 117.25 298.77 120.48 319.9 124.88 298.98 146 295.76 125.09 291.36 121.86 270.24 117.47 291.15"/><polygon class="cls-1" points="394.3 685.36 373.17 688.59 394.09 692.98 397.31 714.11 401.71 693.19 422.83 689.97 401.92 685.57 398.69 664.44 394.3 685.36"/><polygon class="cls-1" points="309.98 743.4 298.15 745.21 309.86 747.67 311.67 759.5 314.13 747.79 325.96 745.98 314.25 743.52 312.44 731.68 309.98 743.4"/><polygon class="cls-1" points="454.03 659.27 442.19 661.07 453.91 663.53 455.72 675.37 458.18 663.65 470.01 661.85 458.3 659.39 456.49 647.55 454.03 659.27"/><polygon class="cls-1" points="36.98 456.5 25.14 458.31 36.86 460.77 38.67 472.61 41.13 460.89 52.96 459.08 41.24 456.62 39.44 444.79 36.98 456.5"/><polygon class="cls-1" points="365.64 389.95 353.81 391.76 365.52 394.22 367.33 406.05 369.79 394.34 381.62 392.53 369.91 390.07 368.1 378.24 365.64 389.95"/><polygon class="cls-1" points="496.09 522.49 484.26 524.3 495.97 526.76 497.78 538.59 500.24 526.88 512.07 525.07 500.36 522.61 498.55 510.78 496.09 522.49"/><polygon class="cls-1" points="616.58 658.79 604.75 660.6 616.46 663.06 618.27 674.89 620.73 663.18 632.56 661.37 620.85 658.91 619.04 647.08 616.58 658.79"/><polygon class="cls-1" points="259.53 597.51 247.7 599.32 259.42 601.78 261.22 613.62 263.68 601.9 275.52 600.1 263.8 597.63 262 585.8 259.53 597.51"/><polygon class="cls-1" points="143.93 529.38 132.09 531.19 143.81 533.65 145.62 545.48 148.08 533.77 159.91 531.96 148.2 529.5 146.39 517.67 143.93 529.38"/><polygon class="cls-1" points="1278.71 728.68 1257.58 731.91 1278.49 736.3 1281.72 757.43 1286.12 736.52 1307.24 733.29 1286.33 728.89 1283.1 707.77 1278.71 728.68"/><polygon class="cls-1" points="1515.09 682.84 1493.97 686.06 1514.88 690.46 1518.11 711.58 1522.5 690.67 1543.63 687.44 1522.71 683.05 1519.49 661.92 1515.09 682.84"/><polygon class="cls-1" points="1420.77 744.31 1408.94 746.12 1420.65 748.58 1422.46 760.41 1424.92 748.7 1436.76 746.89 1425.04 744.43 1423.23 732.6 1420.77 744.31"/><polygon class="cls-1" points="1460.55 271.86 1448.71 273.67 1460.43 276.13 1462.24 287.96 1464.7 276.24 1476.53 274.44 1464.82 271.98 1463.01 260.14 1460.55 271.86"/><polygon class="cls-1" points="1305.17 676.18 1293.33 677.99 1305.05 680.45 1306.86 692.28 1309.32 680.57 1321.15 678.76 1309.43 676.3 1307.63 664.47 1305.17 676.18"/><polygon class="cls-1" points="648.13 376.04 636.3 377.85 648.01 380.31 649.82 392.14 652.28 380.43 664.11 378.62 652.4 376.16 650.59 364.33 648.13 376.04"/><polygon class="cls-1" points="559.29 448.24 547.46 450.05 559.17 452.51 560.98 464.35 563.44 452.63 575.27 450.82 563.56 448.36 561.75 436.53 559.29 448.24"/></g></svg>